{
  "accessors": [
    {
      "bufferView": 2,
      "componentType": 5126,
      "count": 659,
      "max": [
        7.073286533355713,
        6.839164733886719,
        6.582520484924316
      ],
      "min": [
        -7.257864475250244,
        -66.22528076171875,
        -7.371194362640381
      ],
      "type": "VEC3"
    },
    {
      "bufferView": 2,
      "byteOffset": 7908,
      "componentType": 5126,
      "count": 659,
      "max": [
        0.9988051652908325,
        1.0,
        1.0
      ],
      "min": [
        -0.9927111268043518,
        -1.0,
        -1.0
      ],
      "type": "VEC3"
    },
    {
      "bufferView": 3,
      "componentType": 5126,
      "count": 659,
      "max": [
        1.0,
        0.7906965613365173,
        0.9927107691764832,
        1.0
      ],
      "min": [
        -1.0,
        -0.806887149810791,
        -0.9927101731300354,
        -1.0
      ],
      "type": "VEC4"
    },
    {
      "bufferView": 1,
      "componentType": 5126,
      "count": 659,
      "max": [
        1.4909894466400146,
        1.0
      ],
      "min": [
        0.0,
        -0.02350747585296631
      ],
      "type": "VEC2"
    },
    {
      "bufferView": 1,
      "byteOffset": 5272,
      "componentType": 5126,
      "count": 659,
      "max": [
        1.4909894466400146,
        1.0
      ],
      "min": [
        0.0,
        -0.02350747585296631
      ],
      "type": "VEC2"
    },
    {
      "bufferView": 1,
      "byteOffset": 10544,
      "componentType": 5126,
      "count": 659,
      "max": [
        1.4909894466400146,
        1.0
      ],
      "min": [
        0.0,
        -0.02350747585296631
      ],
      "type": "VEC2"
    },
    {
      "bufferView": 1,
      "byteOffset": 15816,
      "componentType": 5126,
      "count": 659,
      "max": [
        1.4909894466400146,
        1.0
      ],
      "min": [
        0.0,
        -0.02350747585296631
      ],
      "type": "VEC2"
    },
    {
      "bufferView": 0,
      "componentType": 5125,
      "count": 2622,
      "type": "SCALAR"
    },
    {
      "bufferView": 2,
      "byteOffset": 15816,
      "componentType": 5126,
      "count": 80,
      "max": [
        8.851129531860352,
        6.449145317077637,
        8.660834312438965
      ],
      "min": [
        -8.872297286987305,
        -7.22468376159668,
        -8.933368682861328
      ],
      "type": "VEC3"
    },
    {
      "bufferView": 2,
      "byteOffset": 16776,
      "componentType": 5126,
      "count": 80,
      "max": [
        0.8327480554580688,
        0.7746691703796387,
        0.8145043849945068
      ],
      "min": [
        -0.8327712416648865,
        -0.8419695496559143,
        -0.8388833403587341
      ],
      "type": "VEC3"
    },
    {
      "bufferView": 3,
      "byteOffset": 10544,
      "componentType": 5126,
      "count": 80,
      "max": [
        1.0,
        0.83882737159729,
        0.9927102327346802,
        1.0
      ],
      "min": [
        -0.9911202192306519,
        -0.7485311031341553,
        -0.9927102327346802,
        -1.0
      ],
      "type": "VEC4"
    },
    {
      "bufferView": 1,
      "byteOffset": 21088,
      "componentType": 5126,
      "count": 80,
      "max": [
        1.0,
        1.0
      ],
      "min": [
        4.470348358154297e-08,
        0.016973957419395447
      ],
      "type": "VEC2"
    },
    {
      "bufferView": 1,
      "byteOffset": 21728,
      "componentType": 5126,
      "count": 80,
      "max": [
        1.0,
        1.0
      ],
      "min": [
        4.470348358154297e-08,
        0.016973957419395447
      ],
      "type": "VEC2"
    },
    {
      "bufferView": 1,
      "byteOffset": 22368,
      "componentType": 5126,
      "count": 80,
      "max": [
        1.0,
        1.0
      ],
      "min": [
        4.470348358154297e-08,
        0.016973957419395447
      ],
      "type": "VEC2"
    },
    {
      "bufferView": 1,
      "byteOffset": 23008,
      "componentType": 5126,
      "count": 80,
      "max": [
        1.0,
        1.0
      ],
      "min": [
        4.470348358154297e-08,
        0.016973957419395447
      ],
      "type": "VEC2"
    },
    {
      "bufferView": 0,
      "byteOffset": 10488,
      "componentType": 5125,
      "count": 312,
      "type": "SCALAR"
    }
  ],
  "asset": {
    "extras": {
      "author": "Audrey Langlois (https://sketchfab.com/AudreyLanglois)",
      "license": "CC-BY-4.0 (http://creativecommons.org/licenses/by/4.0/)",
      "source": "https://sketchfab.com/3d-models/vieille-lampe-old-lamp-55f424ba36014bc0822e45bb1b5a8d44",
      "title": "Vieille Lampe | Old lamp"
    },
    "generator": "Sketchfab-12.68.0",
    "version": "2.0"
  },
  "bufferViews": [
    {
      "buffer": 0,
      "byteLength": 11736,
      "name": "floatBufferViews",
      "target": 34963
    },
    {
      "buffer": 0,
      "byteLength": 23648,
      "byteOffset": 11736,
      "byteStride": 8,
      "name": "floatBufferViews",
      "target": 34962
    },
    {
      "buffer": 0,
      "byteLength": 17736,
      "byteOffset": 35384,
      "byteStride": 12,
      "name": "floatBufferViews",
      "target": 34962
    },
    {
      "buffer": 0,
      "byteLength": 11824,
      "byteOffset": 53120,
      "byteStride": 16,
      "name": "floatBufferViews",
      "target": 34962
    }
  ],
  "buffers": [
    {
      "byteLength": 64944,
      "uri": "scene.bin"
    }
  ],
  "images": [
    {
      "uri": "textures/Metal_lampe_baseColor.jpeg"
    },
    {
      "uri": "textures/Metal_lampe_metallicRoughness.png"
    },
    {
      "uri": "textures/Metal_lampe_normal.jpeg"
    },
    {
      "uri": "textures/FabricLumiere_baseColor.jpeg"
    },
    {
      "uri": "textures/FabricLumiere_metallicRoughness.png"
    },
    {
      "uri": "textures/FabricLumiere_normal.jpeg"
    }
  ],
  "materials": [
    {
      "doubleSided": true,
      "name": "Metal_lampe",
      "normalTexture": {
        "index": 2
      },
      "pbrMetallicRoughness": {
        "baseColorTexture": {
          "index": 0
        },
        "metallicRoughnessTexture": {
          "index": 1
        }
      }
    },
    {
      "doubleSided": true,
      "name": "FabricLumiere",
      "normalTexture": {
        "index": 5
      },
      "pbrMetallicRoughness": {
        "baseColorTexture": {
          "index": 3
        },
        "metallicFactor": 0.0,
        "metallicRoughnessTexture": {
          "index": 4
        }
      }
    }
  ],
  "meshes": [
    {
      "name": "Object_0",
      "primitives": [
        {
          "attributes": {
            "NORMAL": 1,
            "POSITION": 0,
            "TANGENT": 2,
            "TEXCOORD_0": 3,
            "TEXCOORD_1": 4,
            "TEXCOORD_2": 5,
            "TEXCOORD_3": 6
          },
          "indices": 7,
          "material": 0,
          "mode": 4
        }
      ]
    },
    {
      "name": "Object_1",
      "primitives": [
        {
          "attributes": {
            "NORMAL": 9,
            "POSITION": 8,
            "TANGENT": 10,
            "TEXCOORD_0": 11,
            "TEXCOORD_1": 12,
            "TEXCOORD_2": 13,
            "TEXCOORD_3": 14
          },
          "indices": 15,
          "material": 1,
          "mode": 4
        }
      ]
    }
  ],
  "nodes": [
    {
      "children": [
        1
      ],
      "matrix": [
        1.0,
        0.0,
        0.0,
        0.0,
        0.0,
        2.220446049250313e-16,
        -1.0,
        0.0,
        0.0,
        1.0,
        2.220446049250313e-16,
        0.0,
        0.0,
        0.0,
        0.0,
        1.0
      ],
      "name": "Sketchfab_model"
    },
    {
      "children": [
        2
      ],
      "name": "root"
    },
    {
      "children": [
        3
      ],
      "matrix": [
        1.0,
        0.0,
        0.0,
        0.0,
        0.0,
        2.220446049250313e-16,
        1.0,
        0.0,
        0.0,
        -1.0,
        2.220446049250313e-16,
        0.0,
        0.0,
        0.0,
        0.0,
        1.0
      ],
      "name": "GLTF_SceneRootNode"
    },
    {
      "children": [
        4,
        5
      ],
      "matrix": [
        0.02377951145172119,
        0.0,
        0.0,
        0.0,
        0.0,
        0.02377951145172119,
        0.0,
        0.0,
        0.0,
        0.0,
        0.02377951145172119,
        0.0,
        0.04405596852302551,
        1.5555341243743896,
        0.03844738006591797,
        1.0
      ],
      "name": "Sphere.006_0"
    },
    {
      "mesh": 0,
      "name": "Object_4"
    },
    {
      "mesh": 1,
      "name": "Object_5"
    }
  ],
  "samplers": [
    {
      "magFilter": 9729,
      "minFilter": 9987,
      "wrapS": 10497,
      "wrapT": 10497
    }
  ],
  "scene": 0,
  "scenes": [
    {
      "name": "Sketchfab_Scene",
      "nodes": [
        0
      ]
    }
  ],
  "textures": [
    {
      "sampler": 0,
      "source": 0
    },
    {
      "sampler": 0,
      "source": 1
    },
    {
      "sampler": 0,
      "source": 2
    },
    {
      "sampler": 0,
      "source": 3
    },
    {
      "sampler": 0,
      "source": 4
    },
    {
      "sampler": 0,
      "source": 5
    }
  ]
}
